<svg width="100" height="99" viewBox="0 0 100 99" fill="none" xmlns="http://www.w3.org/2000/svg">
<g filter="url(#filter0_di_211_6367)">
<path fill-rule="evenodd" clip-rule="evenodd" d="M50 91C73.7482 91 93 71.7482 93 48C93 24.2518 73.7482 5 50 5C26.2518 5 7 24.2518 7 48C7 71.7482 26.2518 91 50 91ZM66.3001 34.8594C67.6204 33.7687 69.5749 33.9548 70.6656 35.2751C71.7563 36.5954 71.5702 38.5499 70.2499 39.6406L45.5249 60.0656C44.2556 61.1142 42.3882 60.988 41.2715 59.7782L28.3715 45.8032C27.2099 44.5449 27.2884 42.5831 28.5468 41.4215C29.8051 40.2599 31.7669 40.3384 32.9285 41.5968L43.8378 53.4152L66.3001 34.8594Z" fill="url(#paint0_linear_211_6367)"/>
</g>
<defs>
<filter id="filter0_di_211_6367" x="0.7306" y="0.29795" width="98.5388" height="98.5388" filterUnits="userSpaceOnUse" color-interpolation-filters="sRGB">
<feFlood flood-opacity="0" result="BackgroundImageFix"/>
<feColorMatrix in="SourceAlpha" type="matrix" values="0 0 0 0 0 0 0 0 0 0 0 0 0 0 0 0 0 0 127 0" result="hardAlpha"/>
<feOffset dy="1.56735"/>
<feGaussianBlur stdDeviation="3.1347"/>
<feComposite in2="hardAlpha" operator="out"/>
<feColorMatrix type="matrix" values="0 0 0 0 0.716992 0 0 0 0 0.716992 0 0 0 0 0.716992 0 0 0 0.26 0"/>
<feBlend mode="normal" in2="BackgroundImageFix" result="effect1_dropShadow_211_6367"/>
<feBlend mode="normal" in="SourceGraphic" in2="effect1_dropShadow_211_6367" result="shape"/>
<feColorMatrix in="SourceAlpha" type="matrix" values="0 0 0 0 0 0 0 0 0 0 0 0 0 0 0 0 0 0 127 0" result="hardAlpha"/>
<feOffset dy="3.225"/>
<feGaussianBlur stdDeviation="1.56735"/>
<feComposite in2="hardAlpha" operator="arithmetic" k2="-1" k3="1"/>
<feColorMatrix type="matrix" values="0 0 0 0 1 0 0 0 0 1 0 0 0 0 1 0 0 0 0.4 0"/>
<feBlend mode="normal" in2="shape" result="effect2_innerShadow_211_6367"/>
</filter>
<linearGradient id="paint0_linear_211_6367" x1="51.5903" y1="-27.5316" x2="-6.58347" y2="71.2563" gradientUnits="userSpaceOnUse">
<stop stop-color="#7EF6CA"/>
<stop offset="1" stop-color="#1BD18F"/>
</linearGradient>
</defs>
</svg>
