<svg width="36" height="13" viewBox="0 0 36 13" fill="none" xmlns="http://www.w3.org/2000/svg">
<path d="M25.9721 1.33532C25.4945 0.698763 24.7311 0.390909 23.7093 0.390909C23.0674 0.390909 22.4942 0.524412 21.9927 0.794433C21.5383 1.03909 21.1172 1.32739 20.7295 1.65931L20.6688 1.24995C20.6135 0.877194 20.2935 0.601172 19.9167 0.601172H19.5623C18.9156 0.601172 18.3913 1.12548 18.3913 1.77224V7.91746C18.3913 8.64228 18.9789 9.22987 19.7037 9.22987C20.4285 9.22987 21.0161 8.64228 21.0161 7.91746V4.51552C21.0161 3.79077 21.3 3.0777 21.9015 2.7269C22.1564 2.57828 22.4663 2.50146 22.8356 2.50146C23.2779 2.50146 23.5682 2.62566 23.7378 2.84885L23.7378 2.84888L23.7395 2.85111C23.9237 3.08072 24.0287 3.50344 24.0287 4.14956V7.90922C24.0287 8.63859 24.62 9.22987 25.3494 9.22987C26.0788 9.22987 26.67 8.63859 26.67 7.90922V3.87922C26.67 2.80414 26.4421 1.95166 25.9721 1.33532ZM25.9721 1.33532C25.9722 1.33544 25.9723 1.33556 25.9724 1.33567L25.8851 1.40113L25.9719 1.33497C25.972 1.33509 25.972 1.3352 25.9721 1.33532ZM29.8291 1.5894C29.3886 1.97035 29.0337 2.44314 28.7641 3.00606L28.7634 3.00769C28.5031 3.57472 28.3743 4.2164 28.3743 4.93054C28.3743 5.63363 28.4918 6.26906 28.7289 6.83503L28.7292 6.83569C28.9653 7.38887 29.2866 7.86189 29.6935 8.25322L29.6935 8.25325L29.6956 8.25523C30.1134 8.63586 30.6039 8.92836 31.1659 9.13316C31.7283 9.33815 32.3345 9.44013 32.9835 9.44013C33.5222 9.44013 34.0551 9.3583 34.5817 9.19494L34.5829 9.19456C34.8657 9.10332 35.1362 8.98674 35.3944 8.84482C35.8546 8.59196 35.9305 8.00497 35.6565 7.58752C35.3386 7.10314 34.6875 7.02077 34.1864 7.23715L34.2296 7.3373L34.1864 7.23715L34.1636 7.24694C34.1631 7.24715 34.1625 7.24735 34.162 7.24756C33.8674 7.36237 33.5627 7.4197 33.2472 7.4197C32.8658 7.4197 32.5374 7.34743 32.2588 7.20656C31.9866 7.06339 31.7632 6.87837 31.5867 6.65167C31.4084 6.4126 31.2771 6.14464 31.1928 5.84699C31.1076 5.54621 31.065 5.24082 31.065 4.93054C31.065 4.1393 31.2736 3.52752 31.679 3.08211C32.0959 2.6361 32.6372 2.41134 33.3131 2.41134C33.5627 2.41134 33.7889 2.45863 33.9932 2.55171L33.9931 2.55187L33.9987 2.55406C34.4395 2.72617 34.9995 2.6991 35.3219 2.30049L35.3797 2.22904C35.7371 1.78709 35.6721 1.10711 35.1364 0.841331C35.0137 0.780458 34.8867 0.723152 34.7556 0.669401C34.3006 0.482818 33.7806 0.390909 33.1978 0.390909C32.5595 0.390909 31.9484 0.49297 31.3649 0.697423C30.7811 0.902012 30.2688 1.19922 29.8291 1.5894ZM29.8291 1.5894C29.8293 1.58925 29.8295 1.58909 29.8296 1.58893L29.901 1.67146L29.8286 1.58988C29.8287 1.58972 29.8289 1.58956 29.8291 1.5894ZM4.66684 6.46099L4.66676 6.46105L4.67011 6.46441C4.75893 6.55343 4.80308 6.6606 4.80308 6.79287C4.80308 7.01682 4.71096 7.20115 4.51587 7.3523C4.33583 7.4903 4.03048 7.56988 3.57699 7.56988C3.16254 7.56988 2.75865 7.49252 2.36468 7.33736C2.20345 7.27205 2.03998 7.19553 1.87429 7.10772C1.41589 6.86479 0.826613 6.93566 0.492291 7.35393C0.141125 7.79327 0.209277 8.46222 0.732042 8.73291C1.0009 8.87212 1.28884 8.99562 1.59571 9.10354C2.23302 9.32766 2.87162 9.44013 3.51105 9.44013C4.12334 9.44013 4.66207 9.36919 5.12549 9.22507C5.59683 9.08189 5.99413 8.88625 6.31451 8.63604C6.6337 8.38677 6.87556 8.09401 7.03737 7.75759C7.20993 7.42168 7.29603 7.05952 7.29603 6.67272C7.29603 6.26842 7.21643 5.91861 7.05141 5.62828C6.89044 5.33518 6.6774 5.0885 6.41281 4.88914C6.16319 4.69286 5.88045 4.52821 5.56523 4.3948C5.2664 4.26372 4.96206 4.14273 4.65223 4.03183L4.65224 4.0318L4.64978 4.03099C4.4082 3.95095 4.17201 3.87587 3.94123 3.80575C3.72607 3.72722 3.53343 3.6442 3.363 3.55686C3.19588 3.47121 3.06373 3.37804 2.96397 3.27859C2.88458 3.18927 2.8454 3.08583 2.8454 2.96308C2.8454 2.75821 2.92728 2.5946 3.09899 2.46423C3.26872 2.33536 3.54761 2.26116 3.95612 2.26116C4.2928 2.26116 4.613 2.32816 4.9177 2.46219L4.91767 2.46226L4.92157 2.4638C5.02349 2.50404 5.12549 2.54822 5.22759 2.59637C5.66415 2.80225 6.20852 2.72896 6.52395 2.34141C6.88349 1.89967 6.79458 1.22566 6.26298 0.967264C6.09335 0.884812 5.91544 0.805688 5.72927 0.729871C5.20725 0.502642 4.59324 0.390909 3.89018 0.390909C3.36486 0.390909 2.88172 0.457064 2.44164 0.590627C2.01312 0.71401 1.64328 0.894858 1.33424 1.13472C1.0257 1.37419 0.784525 1.66152 0.612124 1.99639C0.43846 2.32366 0.352456 2.68668 0.352456 3.08323C0.352456 3.45005 0.433134 3.77523 0.598404 4.05488C0.7589 4.32645 0.965068 4.56628 1.21615 4.77425L1.21613 4.77428L1.21828 4.77597C1.4669 4.9716 1.74321 5.14105 2.04684 5.28449L2.04683 5.28453L2.04962 5.28576C2.34862 5.41692 2.64777 5.53305 2.94707 5.63411C3.18777 5.72383 3.42298 5.81355 3.65269 5.90325L3.65266 5.90332L3.6566 5.90469C3.88231 5.98303 4.07932 6.07054 4.24829 6.16676L4.24817 6.16698L4.25488 6.17022C4.43248 6.25589 4.56849 6.35346 4.66684 6.46099ZM11.9559 4.5768L11.9559 4.57678L10.7588 1.39036C10.5804 0.915601 10.1264 0.601172 9.61924 0.601172C8.74777 0.601172 8.15859 1.49014 8.49812 2.29275L11.1213 8.49374C11.3042 8.92607 11.3121 9.41254 11.1432 9.85052L10.7172 10.9551C10.4099 11.752 10.998 12.6091 11.8521 12.6091C12.364 12.6091 12.8212 12.2885 12.9956 11.8071L13.8682 9.3989L13.8685 9.39824L16.531 2.19569C16.8168 1.42251 16.2447 0.601172 15.4204 0.601172C14.9075 0.601172 14.453 0.931397 14.2944 1.41917L13.2666 4.58142L13.2665 4.58139L13.2653 4.58559C13.1553 4.97631 13.0454 5.37204 12.9354 5.77276C12.8457 6.09974 12.756 6.42337 12.6663 6.74366C12.5583 6.3985 12.454 6.06373 12.3536 5.73933C12.2321 5.3468 12.0995 4.95929 11.9559 4.5768ZM20.7445 1.76036L20.6892 1.76854L20.7445 1.76035L20.7444 1.76002C20.7444 1.76013 20.7444 1.76024 20.7445 1.76036Z" fill="white" stroke="white" stroke-width="0.218182"/>
</svg>
